<mxfile host="app.diagrams.net" modified="2024-04-03T08:56:42.090Z" agent="Mozilla/5.0 (Windows NT 10.0; Win64; x64) AppleWebKit/537.36 (KHTML, like Gecko) Chrome/123.0.0.0 Safari/537.36" etag="QZpx1ZlEeL_nbQzsID8k" version="24.2.1" type="device">
  <diagram name="페이지-1" id="GR3igArWnYnL87o1qkjd">
    <mxGraphModel dx="1674" dy="780" grid="1" gridSize="10" guides="1" tooltips="1" connect="1" arrows="1" fold="1" page="1" pageScale="1" pageWidth="827" pageHeight="1169" math="0" shadow="0">
      <root>
        <mxCell id="0" />
        <mxCell id="1" parent="0" />
        <mxCell id="XxUgrwrrDDxpQOlz3KIk-1" value="Traffic&lt;div&gt;교통편 안내&lt;/div&gt;" style="rounded=0;whiteSpace=wrap;html=1;" parent="1" vertex="1">
          <mxGeometry x="200" y="10" width="120" height="60" as="geometry" />
        </mxCell>
        <mxCell id="XxUgrwrrDDxpQOlz3KIk-2" value="&lt;font color=&quot;#ff0000&quot;&gt;ttype&lt;/font&gt;&lt;div&gt;&lt;font color=&quot;#ff0000&quot;&gt;(종류)&lt;/font&gt;&lt;/div&gt;" style="ellipse;whiteSpace=wrap;html=1;strokeColor=#FF0000;" parent="1" vertex="1">
          <mxGeometry x="20" y="110" width="120" height="80" as="geometry" />
        </mxCell>
        <mxCell id="XxUgrwrrDDxpQOlz3KIk-3" value="&lt;div&gt;no&lt;/div&gt;&lt;div&gt;(번호)&lt;/div&gt;" style="ellipse;whiteSpace=wrap;html=1;" parent="1" vertex="1">
          <mxGeometry x="140" y="110" width="120" height="80" as="geometry" />
        </mxCell>
        <mxCell id="XxUgrwrrDDxpQOlz3KIk-4" value="route&lt;div&gt;(노선도)&lt;/div&gt;" style="ellipse;whiteSpace=wrap;html=1;" parent="1" vertex="1">
          <mxGeometry x="260" y="110" width="120" height="80" as="geometry" />
        </mxCell>
        <mxCell id="XxUgrwrrDDxpQOlz3KIk-5" value="comment&lt;div&gt;(설명)&lt;/div&gt;" style="ellipse;whiteSpace=wrap;html=1;" parent="1" vertex="1">
          <mxGeometry x="380" y="110" width="120" height="80" as="geometry" />
        </mxCell>
        <mxCell id="XxUgrwrrDDxpQOlz3KIk-6" value="" style="endArrow=classic;html=1;rounded=0;exitX=0.5;exitY=1;exitDx=0;exitDy=0;entryX=0.5;entryY=0;entryDx=0;entryDy=0;" parent="1" source="XxUgrwrrDDxpQOlz3KIk-1" target="XxUgrwrrDDxpQOlz3KIk-2" edge="1">
          <mxGeometry width="50" height="50" relative="1" as="geometry">
            <mxPoint x="90" y="80" as="sourcePoint" />
            <mxPoint x="140" y="30" as="targetPoint" />
          </mxGeometry>
        </mxCell>
        <mxCell id="XxUgrwrrDDxpQOlz3KIk-7" value="" style="endArrow=classic;html=1;rounded=0;exitX=0.5;exitY=1;exitDx=0;exitDy=0;entryX=0.5;entryY=0;entryDx=0;entryDy=0;" parent="1" source="XxUgrwrrDDxpQOlz3KIk-1" target="XxUgrwrrDDxpQOlz3KIk-5" edge="1">
          <mxGeometry width="50" height="50" relative="1" as="geometry">
            <mxPoint x="350" y="90" as="sourcePoint" />
            <mxPoint x="400" y="40" as="targetPoint" />
          </mxGeometry>
        </mxCell>
        <mxCell id="XxUgrwrrDDxpQOlz3KIk-8" value="" style="endArrow=classic;html=1;rounded=0;entryX=0.5;entryY=0;entryDx=0;entryDy=0;" parent="1" target="XxUgrwrrDDxpQOlz3KIk-3" edge="1">
          <mxGeometry width="50" height="50" relative="1" as="geometry">
            <mxPoint x="260" y="70" as="sourcePoint" />
            <mxPoint x="90" y="120" as="targetPoint" />
          </mxGeometry>
        </mxCell>
        <mxCell id="XxUgrwrrDDxpQOlz3KIk-9" value="" style="endArrow=classic;html=1;rounded=0;entryX=0.5;entryY=0;entryDx=0;entryDy=0;exitX=0.5;exitY=1;exitDx=0;exitDy=0;" parent="1" source="XxUgrwrrDDxpQOlz3KIk-1" target="XxUgrwrrDDxpQOlz3KIk-4" edge="1">
          <mxGeometry width="50" height="50" relative="1" as="geometry">
            <mxPoint x="260" y="80" as="sourcePoint" />
            <mxPoint x="210" y="120" as="targetPoint" />
          </mxGeometry>
        </mxCell>
        <mxCell id="XxUgrwrrDDxpQOlz3KIk-10" value="Guide&lt;div&gt;이용 안내&lt;/div&gt;" style="rounded=0;whiteSpace=wrap;html=1;" parent="1" vertex="1">
          <mxGeometry x="1090" y="10" width="120" height="60" as="geometry" />
        </mxCell>
        <mxCell id="XxUgrwrrDDxpQOlz3KIk-11" value="&lt;font color=&quot;#ff0000&quot;&gt;pcode&lt;/font&gt;&lt;div&gt;&lt;font color=&quot;#ff0000&quot;&gt;(장소 코드)&lt;/font&gt;&lt;/div&gt;" style="ellipse;whiteSpace=wrap;html=1;strokeColor=#FF0000;" parent="1" vertex="1">
          <mxGeometry x="590" y="150" width="120" height="40" as="geometry" />
        </mxCell>
        <mxCell id="XxUgrwrrDDxpQOlz3KIk-12" value="pname&lt;div&gt;장소 이름&lt;/div&gt;" style="ellipse;whiteSpace=wrap;html=1;" parent="1" vertex="1">
          <mxGeometry x="710" y="150" width="120" height="40" as="geometry" />
        </mxCell>
        <mxCell id="XxUgrwrrDDxpQOlz3KIk-13" value="ptype&lt;div&gt;장소 타입&lt;/div&gt;" style="ellipse;whiteSpace=wrap;html=1;" parent="1" vertex="1">
          <mxGeometry x="830" y="150" width="120" height="40" as="geometry" />
        </mxCell>
        <mxCell id="XxUgrwrrDDxpQOlz3KIk-14" value="&lt;div&gt;paddr&lt;/div&gt;&lt;div&gt;장소 주소&lt;/div&gt;" style="ellipse;whiteSpace=wrap;html=1;" parent="1" vertex="1">
          <mxGeometry x="950" y="150" width="120" height="40" as="geometry" />
        </mxCell>
        <mxCell id="XxUgrwrrDDxpQOlz3KIk-15" value="" style="endArrow=classic;html=1;rounded=0;exitX=0.5;exitY=1;exitDx=0;exitDy=0;entryX=0.5;entryY=0;entryDx=0;entryDy=0;" parent="1" source="XxUgrwrrDDxpQOlz3KIk-10" target="XxUgrwrrDDxpQOlz3KIk-11" edge="1">
          <mxGeometry width="50" height="50" relative="1" as="geometry">
            <mxPoint x="660" y="80" as="sourcePoint" />
            <mxPoint x="710" y="30" as="targetPoint" />
          </mxGeometry>
        </mxCell>
        <mxCell id="XxUgrwrrDDxpQOlz3KIk-16" value="" style="endArrow=classic;html=1;rounded=0;exitX=0.5;exitY=1;exitDx=0;exitDy=0;entryX=0.5;entryY=0;entryDx=0;entryDy=0;" parent="1" source="XxUgrwrrDDxpQOlz3KIk-10" target="XxUgrwrrDDxpQOlz3KIk-14" edge="1">
          <mxGeometry width="50" height="50" relative="1" as="geometry">
            <mxPoint x="920" y="90" as="sourcePoint" />
            <mxPoint x="970" y="40" as="targetPoint" />
          </mxGeometry>
        </mxCell>
        <mxCell id="XxUgrwrrDDxpQOlz3KIk-17" value="" style="endArrow=classic;html=1;rounded=0;entryX=0.5;entryY=0;entryDx=0;entryDy=0;exitX=0.5;exitY=1;exitDx=0;exitDy=0;" parent="1" source="XxUgrwrrDDxpQOlz3KIk-10" target="XxUgrwrrDDxpQOlz3KIk-12" edge="1">
          <mxGeometry width="50" height="50" relative="1" as="geometry">
            <mxPoint x="830" y="70" as="sourcePoint" />
            <mxPoint x="660" y="120" as="targetPoint" />
          </mxGeometry>
        </mxCell>
        <mxCell id="XxUgrwrrDDxpQOlz3KIk-18" value="" style="endArrow=classic;html=1;rounded=0;entryX=0.5;entryY=0;entryDx=0;entryDy=0;exitX=0.5;exitY=1;exitDx=0;exitDy=0;" parent="1" source="XxUgrwrrDDxpQOlz3KIk-10" target="XxUgrwrrDDxpQOlz3KIk-13" edge="1">
          <mxGeometry width="50" height="50" relative="1" as="geometry">
            <mxPoint x="830" y="80" as="sourcePoint" />
            <mxPoint x="780" y="120" as="targetPoint" />
          </mxGeometry>
        </mxCell>
        <mxCell id="XxUgrwrrDDxpQOlz3KIk-19" value="ptel&lt;div&gt;장소연락처&lt;/div&gt;" style="ellipse;whiteSpace=wrap;html=1;" parent="1" vertex="1">
          <mxGeometry x="1070" y="150" width="120" height="40" as="geometry" />
        </mxCell>
        <mxCell id="XxUgrwrrDDxpQOlz3KIk-20" value="&lt;div&gt;pgps&lt;/div&gt;장소GPS" style="ellipse;whiteSpace=wrap;html=1;" parent="1" vertex="1">
          <mxGeometry x="1190" y="150" width="120" height="40" as="geometry" />
        </mxCell>
        <mxCell id="XxUgrwrrDDxpQOlz3KIk-22" value="pcomm&lt;div&gt;&lt;/div&gt;&lt;div&gt;장소 설명&lt;/div&gt;" style="ellipse;whiteSpace=wrap;html=1;" parent="1" vertex="1">
          <mxGeometry x="1310" y="150" width="110" height="40" as="geometry" />
        </mxCell>
        <mxCell id="XxUgrwrrDDxpQOlz3KIk-23" value="premark&lt;div&gt;참고사항&lt;/div&gt;" style="ellipse;whiteSpace=wrap;html=1;" parent="1" vertex="1">
          <mxGeometry x="1420" y="150" width="110" height="40" as="geometry" />
        </mxCell>
        <mxCell id="XxUgrwrrDDxpQOlz3KIk-24" value="" style="endArrow=classic;html=1;rounded=0;entryX=0.5;entryY=0;entryDx=0;entryDy=0;exitX=0.5;exitY=1;exitDx=0;exitDy=0;" parent="1" source="XxUgrwrrDDxpQOlz3KIk-10" target="XxUgrwrrDDxpQOlz3KIk-19" edge="1">
          <mxGeometry width="50" height="50" relative="1" as="geometry">
            <mxPoint x="1040" y="70" as="sourcePoint" />
            <mxPoint x="1020" y="160" as="targetPoint" />
          </mxGeometry>
        </mxCell>
        <mxCell id="XxUgrwrrDDxpQOlz3KIk-25" value="" style="endArrow=classic;html=1;rounded=0;entryX=0.5;entryY=0;entryDx=0;entryDy=0;exitX=0.5;exitY=1;exitDx=0;exitDy=0;" parent="1" source="XxUgrwrrDDxpQOlz3KIk-10" target="XxUgrwrrDDxpQOlz3KIk-20" edge="1">
          <mxGeometry width="50" height="50" relative="1" as="geometry">
            <mxPoint x="1130" y="70" as="sourcePoint" />
            <mxPoint x="1220" y="150" as="targetPoint" />
          </mxGeometry>
        </mxCell>
        <mxCell id="XxUgrwrrDDxpQOlz3KIk-27" value="" style="endArrow=classic;html=1;rounded=0;entryX=0.5;entryY=0;entryDx=0;entryDy=0;exitX=0.5;exitY=1;exitDx=0;exitDy=0;" parent="1" source="XxUgrwrrDDxpQOlz3KIk-10" target="XxUgrwrrDDxpQOlz3KIk-22" edge="1">
          <mxGeometry width="50" height="50" relative="1" as="geometry">
            <mxPoint x="1280" y="20" as="sourcePoint" />
            <mxPoint x="1490" y="100" as="targetPoint" />
          </mxGeometry>
        </mxCell>
        <mxCell id="XxUgrwrrDDxpQOlz3KIk-28" value="" style="endArrow=classic;html=1;rounded=0;entryX=0.5;entryY=0;entryDx=0;entryDy=0;exitX=0.5;exitY=1;exitDx=0;exitDy=0;" parent="1" source="XxUgrwrrDDxpQOlz3KIk-10" target="XxUgrwrrDDxpQOlz3KIk-23" edge="1">
          <mxGeometry width="50" height="50" relative="1" as="geometry">
            <mxPoint x="1377" y="-10" as="sourcePoint" />
            <mxPoint x="1587" y="70" as="targetPoint" />
          </mxGeometry>
        </mxCell>
        <mxCell id="XxUgrwrrDDxpQOlz3KIk-29" value="notice&lt;div&gt;공지사항&lt;/div&gt;" style="rounded=0;whiteSpace=wrap;html=1;" parent="1" vertex="1">
          <mxGeometry x="254" y="210" width="120" height="60" as="geometry" />
        </mxCell>
        <mxCell id="XxUgrwrrDDxpQOlz3KIk-30" value="&lt;font color=&quot;#ff0000&quot;&gt;no&lt;/font&gt;" style="ellipse;whiteSpace=wrap;html=1;strokeColor=#FF0000;" parent="1" vertex="1">
          <mxGeometry y="350" width="120" height="40" as="geometry" />
        </mxCell>
        <mxCell id="XxUgrwrrDDxpQOlz3KIk-31" value="title" style="ellipse;whiteSpace=wrap;html=1;" parent="1" vertex="1">
          <mxGeometry x="120" y="350" width="120" height="40" as="geometry" />
        </mxCell>
        <mxCell id="XxUgrwrrDDxpQOlz3KIk-32" value="content" style="ellipse;whiteSpace=wrap;html=1;" parent="1" vertex="1">
          <mxGeometry x="240" y="350" width="120" height="40" as="geometry" />
        </mxCell>
        <mxCell id="XxUgrwrrDDxpQOlz3KIk-33" value="&lt;div&gt;resdate&lt;/div&gt;&lt;div&gt;작성일시&lt;/div&gt;" style="ellipse;whiteSpace=wrap;html=1;" parent="1" vertex="1">
          <mxGeometry x="360" y="350" width="120" height="40" as="geometry" />
        </mxCell>
        <mxCell id="XxUgrwrrDDxpQOlz3KIk-34" value="" style="endArrow=classic;html=1;rounded=0;exitX=0.5;exitY=1;exitDx=0;exitDy=0;entryX=0.5;entryY=0;entryDx=0;entryDy=0;" parent="1" source="XxUgrwrrDDxpQOlz3KIk-29" target="XxUgrwrrDDxpQOlz3KIk-30" edge="1">
          <mxGeometry width="50" height="50" relative="1" as="geometry">
            <mxPoint x="70" y="280" as="sourcePoint" />
            <mxPoint x="120" y="230" as="targetPoint" />
          </mxGeometry>
        </mxCell>
        <mxCell id="XxUgrwrrDDxpQOlz3KIk-35" value="" style="endArrow=classic;html=1;rounded=0;exitX=0.5;exitY=1;exitDx=0;exitDy=0;entryX=0.5;entryY=0;entryDx=0;entryDy=0;" parent="1" source="XxUgrwrrDDxpQOlz3KIk-29" target="XxUgrwrrDDxpQOlz3KIk-33" edge="1">
          <mxGeometry width="50" height="50" relative="1" as="geometry">
            <mxPoint x="330" y="290" as="sourcePoint" />
            <mxPoint x="380" y="240" as="targetPoint" />
          </mxGeometry>
        </mxCell>
        <mxCell id="XxUgrwrrDDxpQOlz3KIk-36" value="" style="endArrow=classic;html=1;rounded=0;entryX=0.5;entryY=0;entryDx=0;entryDy=0;exitX=0.5;exitY=1;exitDx=0;exitDy=0;" parent="1" source="XxUgrwrrDDxpQOlz3KIk-29" target="XxUgrwrrDDxpQOlz3KIk-31" edge="1">
          <mxGeometry width="50" height="50" relative="1" as="geometry">
            <mxPoint x="240" y="270" as="sourcePoint" />
            <mxPoint x="70" y="320" as="targetPoint" />
          </mxGeometry>
        </mxCell>
        <mxCell id="XxUgrwrrDDxpQOlz3KIk-37" value="" style="endArrow=classic;html=1;rounded=0;entryX=0.5;entryY=0;entryDx=0;entryDy=0;exitX=0.5;exitY=1;exitDx=0;exitDy=0;" parent="1" source="XxUgrwrrDDxpQOlz3KIk-29" target="XxUgrwrrDDxpQOlz3KIk-32" edge="1">
          <mxGeometry width="50" height="50" relative="1" as="geometry">
            <mxPoint x="240" y="280" as="sourcePoint" />
            <mxPoint x="190" y="320" as="targetPoint" />
          </mxGeometry>
        </mxCell>
        <mxCell id="XxUgrwrrDDxpQOlz3KIk-38" value="visited" style="ellipse;whiteSpace=wrap;html=1;" parent="1" vertex="1">
          <mxGeometry x="480" y="350" width="120" height="40" as="geometry" />
        </mxCell>
        <mxCell id="XxUgrwrrDDxpQOlz3KIk-39" value="" style="endArrow=classic;html=1;rounded=0;entryX=0.5;entryY=0;entryDx=0;entryDy=0;exitX=0.5;exitY=1;exitDx=0;exitDy=0;" parent="1" source="XxUgrwrrDDxpQOlz3KIk-29" target="XxUgrwrrDDxpQOlz3KIk-38" edge="1">
          <mxGeometry width="50" height="50" relative="1" as="geometry">
            <mxPoint x="450" y="270" as="sourcePoint" />
            <mxPoint x="430" y="360" as="targetPoint" />
          </mxGeometry>
        </mxCell>
        <mxCell id="XxUgrwrrDDxpQOlz3KIk-81" style="edgeStyle=orthogonalEdgeStyle;rounded=0;orthogonalLoop=1;jettySize=auto;html=1;exitX=0.5;exitY=0;exitDx=0;exitDy=0;entryX=1;entryY=0.5;entryDx=0;entryDy=0;" parent="1" source="XxUgrwrrDDxpQOlz3KIk-40" target="XxUgrwrrDDxpQOlz3KIk-79" edge="1">
          <mxGeometry relative="1" as="geometry" />
        </mxCell>
        <mxCell id="XxUgrwrrDDxpQOlz3KIk-40" value="qna&lt;div&gt;질문응답&lt;/div&gt;" style="rounded=0;whiteSpace=wrap;html=1;" parent="1" vertex="1">
          <mxGeometry x="1060" y="560" width="120" height="60" as="geometry" />
        </mxCell>
        <mxCell id="XxUgrwrrDDxpQOlz3KIk-41" value="no" style="ellipse;whiteSpace=wrap;html=1;" parent="1" vertex="1">
          <mxGeometry x="710" y="710" width="120" height="40" as="geometry" />
        </mxCell>
        <mxCell id="XxUgrwrrDDxpQOlz3KIk-42" value="plevel&lt;div&gt;글 종류&lt;/div&gt;" style="ellipse;whiteSpace=wrap;html=1;" parent="1" vertex="1">
          <mxGeometry x="830" y="710" width="120" height="40" as="geometry" />
        </mxCell>
        <mxCell id="XxUgrwrrDDxpQOlz3KIk-43" value="parno&lt;div&gt;부모글 번호&lt;/div&gt;" style="ellipse;whiteSpace=wrap;html=1;" parent="1" vertex="1">
          <mxGeometry x="950" y="710" width="120" height="40" as="geometry" />
        </mxCell>
        <mxCell id="XxUgrwrrDDxpQOlz3KIk-44" value="&lt;div&gt;content&lt;/div&gt;&lt;div&gt;글내용&lt;/div&gt;" style="ellipse;whiteSpace=wrap;html=1;" parent="1" vertex="1">
          <mxGeometry x="1070" y="710" width="120" height="40" as="geometry" />
        </mxCell>
        <mxCell id="XxUgrwrrDDxpQOlz3KIk-45" value="" style="endArrow=classic;html=1;rounded=0;exitX=0.5;exitY=1;exitDx=0;exitDy=0;entryX=0.5;entryY=0;entryDx=0;entryDy=0;" parent="1" source="XxUgrwrrDDxpQOlz3KIk-40" target="XxUgrwrrDDxpQOlz3KIk-41" edge="1">
          <mxGeometry width="50" height="50" relative="1" as="geometry">
            <mxPoint x="710" y="630" as="sourcePoint" />
            <mxPoint x="760" y="580" as="targetPoint" />
          </mxGeometry>
        </mxCell>
        <mxCell id="XxUgrwrrDDxpQOlz3KIk-46" value="" style="endArrow=classic;html=1;rounded=0;exitX=0.5;exitY=1;exitDx=0;exitDy=0;entryX=0.5;entryY=0;entryDx=0;entryDy=0;" parent="1" source="XxUgrwrrDDxpQOlz3KIk-40" target="XxUgrwrrDDxpQOlz3KIk-44" edge="1">
          <mxGeometry width="50" height="50" relative="1" as="geometry">
            <mxPoint x="970" y="640" as="sourcePoint" />
            <mxPoint x="1020" y="590" as="targetPoint" />
          </mxGeometry>
        </mxCell>
        <mxCell id="XxUgrwrrDDxpQOlz3KIk-47" value="" style="endArrow=classic;html=1;rounded=0;entryX=0.5;entryY=0;entryDx=0;entryDy=0;exitX=0.5;exitY=1;exitDx=0;exitDy=0;" parent="1" source="XxUgrwrrDDxpQOlz3KIk-40" target="XxUgrwrrDDxpQOlz3KIk-42" edge="1">
          <mxGeometry width="50" height="50" relative="1" as="geometry">
            <mxPoint x="880" y="620" as="sourcePoint" />
            <mxPoint x="710" y="670" as="targetPoint" />
          </mxGeometry>
        </mxCell>
        <mxCell id="XxUgrwrrDDxpQOlz3KIk-48" value="" style="endArrow=classic;html=1;rounded=0;entryX=0.5;entryY=0;entryDx=0;entryDy=0;exitX=0.5;exitY=1;exitDx=0;exitDy=0;" parent="1" source="XxUgrwrrDDxpQOlz3KIk-40" target="XxUgrwrrDDxpQOlz3KIk-43" edge="1">
          <mxGeometry width="50" height="50" relative="1" as="geometry">
            <mxPoint x="880" y="630" as="sourcePoint" />
            <mxPoint x="830" y="670" as="targetPoint" />
          </mxGeometry>
        </mxCell>
        <mxCell id="XxUgrwrrDDxpQOlz3KIk-49" value="aid&lt;div&gt;글쓴이&lt;/div&gt;" style="ellipse;whiteSpace=wrap;html=1;" parent="1" vertex="1">
          <mxGeometry x="1430" y="710" width="120" height="40" as="geometry" />
        </mxCell>
        <mxCell id="XxUgrwrrDDxpQOlz3KIk-50" value="" style="endArrow=classic;html=1;rounded=0;entryX=0.5;entryY=0;entryDx=0;entryDy=0;exitX=0.5;exitY=1;exitDx=0;exitDy=0;" parent="1" source="XxUgrwrrDDxpQOlz3KIk-40" target="XxUgrwrrDDxpQOlz3KIk-49" edge="1">
          <mxGeometry width="50" height="50" relative="1" as="geometry">
            <mxPoint x="1090" y="620" as="sourcePoint" />
            <mxPoint x="1070" y="710" as="targetPoint" />
          </mxGeometry>
        </mxCell>
        <mxCell id="XxUgrwrrDDxpQOlz3KIk-51" value="resdate&lt;div&gt;작성일시&lt;/div&gt;" style="ellipse;whiteSpace=wrap;html=1;" parent="1" vertex="1">
          <mxGeometry x="1190" y="710" width="120" height="40" as="geometry" />
        </mxCell>
        <mxCell id="XxUgrwrrDDxpQOlz3KIk-52" value="visited&lt;div&gt;방문횟수&lt;/div&gt;" style="ellipse;whiteSpace=wrap;html=1;" parent="1" vertex="1">
          <mxGeometry x="1310" y="710" width="120" height="40" as="geometry" />
        </mxCell>
        <mxCell id="XxUgrwrrDDxpQOlz3KIk-53" value="" style="endArrow=classic;html=1;rounded=0;entryX=0.5;entryY=0;entryDx=0;entryDy=0;exitX=0.5;exitY=1;exitDx=0;exitDy=0;" parent="1" source="XxUgrwrrDDxpQOlz3KIk-40" target="XxUgrwrrDDxpQOlz3KIk-51" edge="1">
          <mxGeometry width="50" height="50" relative="1" as="geometry">
            <mxPoint x="1194" y="620" as="sourcePoint" />
            <mxPoint x="1180" y="700" as="targetPoint" />
          </mxGeometry>
        </mxCell>
        <mxCell id="XxUgrwrrDDxpQOlz3KIk-54" value="" style="endArrow=classic;html=1;rounded=0;entryX=0.5;entryY=0;entryDx=0;entryDy=0;exitX=0.5;exitY=1;exitDx=0;exitDy=0;" parent="1" source="XxUgrwrrDDxpQOlz3KIk-40" target="XxUgrwrrDDxpQOlz3KIk-52" edge="1">
          <mxGeometry width="50" height="50" relative="1" as="geometry">
            <mxPoint x="1194" y="620" as="sourcePoint" />
            <mxPoint x="1420" y="700" as="targetPoint" />
          </mxGeometry>
        </mxCell>
        <mxCell id="XxUgrwrrDDxpQOlz3KIk-55" value="data&lt;div&gt;자료실&lt;/div&gt;" style="rounded=0;whiteSpace=wrap;html=1;" parent="1" vertex="1">
          <mxGeometry x="1090" y="210" width="120" height="60" as="geometry" />
        </mxCell>
        <mxCell id="XxUgrwrrDDxpQOlz3KIk-56" value="&lt;font color=&quot;#ff0000&quot;&gt;no&lt;/font&gt;" style="ellipse;whiteSpace=wrap;html=1;strokeColor=#FF0000;" parent="1" vertex="1">
          <mxGeometry x="810" y="360" width="120" height="40" as="geometry" />
        </mxCell>
        <mxCell id="XxUgrwrrDDxpQOlz3KIk-57" value="title&lt;div&gt;글 제목&lt;/div&gt;" style="ellipse;whiteSpace=wrap;html=1;" parent="1" vertex="1">
          <mxGeometry x="930" y="360" width="120" height="40" as="geometry" />
        </mxCell>
        <mxCell id="XxUgrwrrDDxpQOlz3KIk-58" value="content&lt;div&gt;글내용&lt;/div&gt;" style="ellipse;whiteSpace=wrap;html=1;" parent="1" vertex="1">
          <mxGeometry x="1050" y="360" width="120" height="40" as="geometry" />
        </mxCell>
        <mxCell id="XxUgrwrrDDxpQOlz3KIk-59" value="datafile&lt;div&gt;데이터 파일&lt;/div&gt;" style="ellipse;whiteSpace=wrap;html=1;" parent="1" vertex="1">
          <mxGeometry x="1170" y="360" width="120" height="40" as="geometry" />
        </mxCell>
        <mxCell id="XxUgrwrrDDxpQOlz3KIk-60" value="" style="endArrow=classic;html=1;rounded=0;exitX=0.5;exitY=1;exitDx=0;exitDy=0;entryX=0.5;entryY=0;entryDx=0;entryDy=0;" parent="1" source="XxUgrwrrDDxpQOlz3KIk-55" target="XxUgrwrrDDxpQOlz3KIk-56" edge="1">
          <mxGeometry width="50" height="50" relative="1" as="geometry">
            <mxPoint x="880" y="290" as="sourcePoint" />
            <mxPoint x="930" y="240" as="targetPoint" />
          </mxGeometry>
        </mxCell>
        <mxCell id="XxUgrwrrDDxpQOlz3KIk-61" value="" style="endArrow=classic;html=1;rounded=0;exitX=0.5;exitY=1;exitDx=0;exitDy=0;entryX=0.5;entryY=0;entryDx=0;entryDy=0;" parent="1" source="XxUgrwrrDDxpQOlz3KIk-55" target="XxUgrwrrDDxpQOlz3KIk-59" edge="1">
          <mxGeometry width="50" height="50" relative="1" as="geometry">
            <mxPoint x="1140" y="300" as="sourcePoint" />
            <mxPoint x="1190" y="250" as="targetPoint" />
          </mxGeometry>
        </mxCell>
        <mxCell id="XxUgrwrrDDxpQOlz3KIk-62" value="" style="endArrow=classic;html=1;rounded=0;entryX=0.5;entryY=0;entryDx=0;entryDy=0;exitX=0.5;exitY=1;exitDx=0;exitDy=0;" parent="1" source="XxUgrwrrDDxpQOlz3KIk-55" target="XxUgrwrrDDxpQOlz3KIk-57" edge="1">
          <mxGeometry width="50" height="50" relative="1" as="geometry">
            <mxPoint x="1050" y="280" as="sourcePoint" />
            <mxPoint x="880" y="330" as="targetPoint" />
          </mxGeometry>
        </mxCell>
        <mxCell id="XxUgrwrrDDxpQOlz3KIk-63" value="" style="endArrow=classic;html=1;rounded=0;entryX=0.5;entryY=0;entryDx=0;entryDy=0;exitX=0.5;exitY=1;exitDx=0;exitDy=0;" parent="1" source="XxUgrwrrDDxpQOlz3KIk-55" target="XxUgrwrrDDxpQOlz3KIk-58" edge="1">
          <mxGeometry width="50" height="50" relative="1" as="geometry">
            <mxPoint x="1050" y="290" as="sourcePoint" />
            <mxPoint x="1000" y="330" as="targetPoint" />
          </mxGeometry>
        </mxCell>
        <mxCell id="XxUgrwrrDDxpQOlz3KIk-64" value="resdate&lt;div&gt;작성일시&lt;/div&gt;" style="ellipse;whiteSpace=wrap;html=1;" parent="1" vertex="1">
          <mxGeometry x="1290" y="360" width="120" height="40" as="geometry" />
        </mxCell>
        <mxCell id="XxUgrwrrDDxpQOlz3KIk-65" value="visited&lt;div&gt;방문횟수&lt;/div&gt;" style="ellipse;whiteSpace=wrap;html=1;" parent="1" vertex="1">
          <mxGeometry x="1410" y="360" width="120" height="40" as="geometry" />
        </mxCell>
        <mxCell id="XxUgrwrrDDxpQOlz3KIk-66" value="" style="endArrow=classic;html=1;rounded=0;entryX=0.5;entryY=0;entryDx=0;entryDy=0;exitX=0.5;exitY=1;exitDx=0;exitDy=0;" parent="1" source="XxUgrwrrDDxpQOlz3KIk-55" target="XxUgrwrrDDxpQOlz3KIk-64" edge="1">
          <mxGeometry width="50" height="50" relative="1" as="geometry">
            <mxPoint x="1364" y="280" as="sourcePoint" />
            <mxPoint x="1350" y="360" as="targetPoint" />
          </mxGeometry>
        </mxCell>
        <mxCell id="XxUgrwrrDDxpQOlz3KIk-67" value="" style="endArrow=classic;html=1;rounded=0;entryX=0.5;entryY=0;entryDx=0;entryDy=0;exitX=0.5;exitY=1;exitDx=0;exitDy=0;" parent="1" source="XxUgrwrrDDxpQOlz3KIk-55" target="XxUgrwrrDDxpQOlz3KIk-65" edge="1">
          <mxGeometry width="50" height="50" relative="1" as="geometry">
            <mxPoint x="1364" y="280" as="sourcePoint" />
            <mxPoint x="1590" y="360" as="targetPoint" />
          </mxGeometry>
        </mxCell>
        <mxCell id="XxUgrwrrDDxpQOlz3KIk-80" style="edgeStyle=orthogonalEdgeStyle;rounded=0;orthogonalLoop=1;jettySize=auto;html=1;exitX=0.5;exitY=0;exitDx=0;exitDy=0;entryX=0;entryY=0.5;entryDx=0;entryDy=0;" parent="1" source="XxUgrwrrDDxpQOlz3KIk-68" target="XxUgrwrrDDxpQOlz3KIk-79" edge="1">
          <mxGeometry relative="1" as="geometry" />
        </mxCell>
        <mxCell id="XxUgrwrrDDxpQOlz3KIk-68" value="&lt;div&gt;member&lt;/div&gt;&lt;div&gt;사용자&lt;/div&gt;" style="rounded=0;whiteSpace=wrap;html=1;" parent="1" vertex="1">
          <mxGeometry x="280" y="560" width="120" height="60" as="geometry" />
        </mxCell>
        <mxCell id="XxUgrwrrDDxpQOlz3KIk-69" value="id" style="ellipse;whiteSpace=wrap;html=1;" parent="1" vertex="1">
          <mxGeometry x="20" y="710" width="120" height="40" as="geometry" />
        </mxCell>
        <mxCell id="XxUgrwrrDDxpQOlz3KIk-70" value="pw&lt;div&gt;비밀번호&lt;/div&gt;" style="ellipse;whiteSpace=wrap;html=1;" parent="1" vertex="1">
          <mxGeometry x="140" y="710" width="120" height="40" as="geometry" />
        </mxCell>
        <mxCell id="XxUgrwrrDDxpQOlz3KIk-71" value="name&lt;div&gt;이름&lt;/div&gt;" style="ellipse;whiteSpace=wrap;html=1;" parent="1" vertex="1">
          <mxGeometry x="260" y="710" width="120" height="40" as="geometry" />
        </mxCell>
        <mxCell id="XxUgrwrrDDxpQOlz3KIk-72" value="addr&lt;div&gt;주소&lt;/div&gt;" style="ellipse;whiteSpace=wrap;html=1;" parent="1" vertex="1">
          <mxGeometry x="380" y="710" width="120" height="40" as="geometry" />
        </mxCell>
        <mxCell id="XxUgrwrrDDxpQOlz3KIk-73" value="" style="endArrow=classic;html=1;rounded=0;exitX=0.5;exitY=1;exitDx=0;exitDy=0;entryX=0.5;entryY=0;entryDx=0;entryDy=0;" parent="1" source="XxUgrwrrDDxpQOlz3KIk-68" target="XxUgrwrrDDxpQOlz3KIk-69" edge="1">
          <mxGeometry width="50" height="50" relative="1" as="geometry">
            <mxPoint x="90" y="640" as="sourcePoint" />
            <mxPoint x="140" y="590" as="targetPoint" />
          </mxGeometry>
        </mxCell>
        <mxCell id="XxUgrwrrDDxpQOlz3KIk-74" value="" style="endArrow=classic;html=1;rounded=0;exitX=0.5;exitY=1;exitDx=0;exitDy=0;entryX=0.5;entryY=0;entryDx=0;entryDy=0;" parent="1" source="XxUgrwrrDDxpQOlz3KIk-68" target="XxUgrwrrDDxpQOlz3KIk-72" edge="1">
          <mxGeometry width="50" height="50" relative="1" as="geometry">
            <mxPoint x="350" y="650" as="sourcePoint" />
            <mxPoint x="400" y="600" as="targetPoint" />
          </mxGeometry>
        </mxCell>
        <mxCell id="XxUgrwrrDDxpQOlz3KIk-75" value="" style="endArrow=classic;html=1;rounded=0;entryX=0.5;entryY=0;entryDx=0;entryDy=0;exitX=0.5;exitY=1;exitDx=0;exitDy=0;" parent="1" source="XxUgrwrrDDxpQOlz3KIk-68" target="XxUgrwrrDDxpQOlz3KIk-70" edge="1">
          <mxGeometry width="50" height="50" relative="1" as="geometry">
            <mxPoint x="260" y="630" as="sourcePoint" />
            <mxPoint x="90" y="680" as="targetPoint" />
          </mxGeometry>
        </mxCell>
        <mxCell id="XxUgrwrrDDxpQOlz3KIk-76" value="" style="endArrow=classic;html=1;rounded=0;entryX=0.5;entryY=0;entryDx=0;entryDy=0;exitX=0.5;exitY=1;exitDx=0;exitDy=0;" parent="1" source="XxUgrwrrDDxpQOlz3KIk-68" target="XxUgrwrrDDxpQOlz3KIk-71" edge="1">
          <mxGeometry width="50" height="50" relative="1" as="geometry">
            <mxPoint x="260" y="640" as="sourcePoint" />
            <mxPoint x="210" y="680" as="targetPoint" />
          </mxGeometry>
        </mxCell>
        <mxCell id="XxUgrwrrDDxpQOlz3KIk-77" value="tel&lt;div&gt;전화번호&lt;/div&gt;" style="ellipse;whiteSpace=wrap;html=1;" parent="1" vertex="1">
          <mxGeometry x="500" y="710" width="120" height="40" as="geometry" />
        </mxCell>
        <mxCell id="XxUgrwrrDDxpQOlz3KIk-78" value="" style="endArrow=classic;html=1;rounded=0;entryX=0.5;entryY=0;entryDx=0;entryDy=0;exitX=0.5;exitY=1;exitDx=0;exitDy=0;" parent="1" source="XxUgrwrrDDxpQOlz3KIk-68" target="XxUgrwrrDDxpQOlz3KIk-77" edge="1">
          <mxGeometry width="50" height="50" relative="1" as="geometry">
            <mxPoint x="574" y="630" as="sourcePoint" />
            <mxPoint x="560" y="710" as="targetPoint" />
          </mxGeometry>
        </mxCell>
        <mxCell id="XxUgrwrrDDxpQOlz3KIk-79" value="&lt;font color=&quot;#0000ff&quot;&gt;글등록&lt;/font&gt;" style="rhombus;whiteSpace=wrap;html=1;" parent="1" vertex="1">
          <mxGeometry x="580" y="470" width="270" height="80" as="geometry" />
        </mxCell>
        <mxCell id="XxUgrwrrDDxpQOlz3KIk-82" value="&lt;font color=&quot;#ff0000&quot;&gt;id&lt;/font&gt;" style="text;html=1;align=center;verticalAlign=middle;resizable=0;points=[];autosize=1;strokeColor=none;fillColor=none;" parent="1" vertex="1">
          <mxGeometry x="550" y="520" width="30" height="30" as="geometry" />
        </mxCell>
        <mxCell id="XxUgrwrrDDxpQOlz3KIk-83" value="&lt;font color=&quot;#0000ff&quot;&gt;aid&lt;/font&gt;" style="text;html=1;align=center;verticalAlign=middle;resizable=0;points=[];autosize=1;strokeColor=none;fillColor=none;" parent="1" vertex="1">
          <mxGeometry x="850" y="520" width="40" height="30" as="geometry" />
        </mxCell>
        <mxCell id="XxUgrwrrDDxpQOlz3KIk-84" value="1" style="text;html=1;align=center;verticalAlign=middle;resizable=0;points=[];autosize=1;strokeColor=none;fillColor=none;" parent="1" vertex="1">
          <mxGeometry x="550" y="470" width="30" height="30" as="geometry" />
        </mxCell>
        <mxCell id="XxUgrwrrDDxpQOlz3KIk-86" value="&lt;span style=&quot;color: rgb(32, 33, 34); font-style: italic; font-variant-ligatures: normal; font-variant-caps: normal; font-weight: 400; letter-spacing: normal; orphans: 2; text-align: start; text-indent: 0px; text-transform: none; widows: 2; word-spacing: 0px; -webkit-text-stroke-width: 0px; white-space: normal; background-color: rgb(255, 255, 255); text-decoration-thickness: initial; text-decoration-style: initial; text-decoration-color: initial; float: none; display: inline !important;&quot;&gt;&lt;font style=&quot;font-size: 18px;&quot; face=&quot;Helvetica&quot;&gt;∞&lt;/font&gt;&lt;/span&gt;" style="text;whiteSpace=wrap;html=1;" parent="1" vertex="1">
          <mxGeometry x="860" y="470" width="60" height="40" as="geometry" />
        </mxCell>
      </root>
    </mxGraphModel>
  </diagram>
</mxfile>
